<svg width="20" height="14" viewBox="0 0 20 14" fill="none" xmlns="http://www.w3.org/2000/svg">
<g clip-path="url(#clip0_54_302)">
<path d="M16.4368 1.16052C15.2258 0.623368 13.9272 0.227615 12.5695 0.000950826C12.5447 -0.00342372 12.52 0.00750851 12.5073 0.0293735C12.3403 0.316529 12.1553 0.691146 12.0257 0.985594C10.5654 0.774239 9.11248 0.774239 7.68204 0.985594C7.55247 0.684601 7.36076 0.316529 7.19299 0.0293735C7.18026 0.00823803 7.15556 -0.0026942 7.13083 0.000950826C5.7738 0.226891 4.47519 0.622643 3.26345 1.16052C3.25296 1.1649 3.24396 1.17219 3.238 1.18166C0.774807 4.73909 0.100037 8.20908 0.431057 11.636C0.432554 11.6528 0.44229 11.6688 0.455771 11.679C2.08091 12.8328 3.65514 13.5332 5.20013 13.9974C5.22486 14.0047 5.25106 13.996 5.2668 13.9763C5.63226 13.4938 5.95805 12.9851 6.23737 12.4501C6.25386 12.4188 6.23812 12.3816 6.20443 12.3692C5.68769 12.1797 5.19564 11.9487 4.72233 11.6863C4.68489 11.6652 4.68189 11.6134 4.71633 11.5887C4.81593 11.5165 4.91556 11.4414 5.01067 11.3656C5.02788 11.3518 5.05185 11.3489 5.07209 11.3576C8.18156 12.73 11.5479 12.73 14.6207 11.3576C14.6409 11.3481 14.6649 11.3511 14.6829 11.3649C14.778 11.4407 14.8776 11.5165 14.978 11.5887C15.0124 11.6134 15.0102 11.6652 14.9727 11.6863C14.4994 11.9538 14.0074 12.1797 13.4899 12.3685C13.4562 12.3809 13.4412 12.4188 13.4577 12.4501C13.743 12.9844 14.0688 13.4931 14.4275 13.9756C14.4425 13.996 14.4694 14.0047 14.4942 13.9974C16.0466 13.5332 17.6209 12.8328 19.246 11.679C19.2602 11.6688 19.2692 11.6535 19.2707 11.6368C19.6669 7.67482 18.6072 4.23329 16.4615 1.18238C16.4563 1.17219 16.4473 1.1649 16.4368 1.16052ZM6.70172 9.54938C5.76556 9.54938 4.99419 8.71853 4.99419 7.69815C4.99419 6.67778 5.7506 5.84693 6.70172 5.84693C7.66031 5.84693 8.42422 6.68508 8.40923 7.69815C8.40923 8.71853 7.65282 9.54938 6.70172 9.54938ZM13.015 9.54938C12.0789 9.54938 11.3075 8.71853 11.3075 7.69815C11.3075 6.67778 12.0639 5.84693 13.015 5.84693C13.9737 5.84693 14.7375 6.68508 14.7226 7.69815C14.7226 8.71853 13.9737 9.54938 13.015 9.54938Z" fill="white"/>
</g>
<defs>
<clipPath id="clip0_54_302">
<rect width="20" height="14" fill="white"/>
</clipPath>
</defs>
</svg>
