<svg width="19" height="14" viewBox="0 0 19 14" fill="none" xmlns="http://www.w3.org/2000/svg">
<path d="M0 12.5099C0 9.65145 0 6.79301 0 3.93457C0.0273535 3.94629 0.0566608 3.95411 0.0807579 3.97039C2.60835 5.65198 5.13594 7.33487 7.66353 9.01711C8.79675 9.77128 9.91954 9.77259 11.0554 9.01711C13.3153 7.51462 15.5732 6.01083 17.8332 4.50899C18.1262 4.31426 18.4232 4.12604 18.7182 3.93457C18.7182 6.79301 18.7182 9.65145 18.7182 12.5099C18.7111 12.5197 18.7007 12.5288 18.6981 12.5392C18.4499 13.5291 17.8475 13.9993 16.825 13.9993C14.3091 13.9993 11.7933 13.9993 9.27739 13.9993C6.79213 13.9993 4.30622 13.998 1.82096 14C1.32469 14.0007 0.888337 13.8548 0.524275 13.5102C0.233807 13.2354 0.0898757 12.887 0 12.5099Z" fill="white"/>
<path d="M0 1.96388C0 1.80562 0 1.64736 0 1.48975C0.0299586 1.38555 0.0560095 1.28004 0.0911783 1.17779C0.339965 0.439248 0.990587 0.000289455 1.8392 0.000289455C6.8527 -0.000361818 11.8662 0.000289455 16.8797 0.000289455C16.9344 0.000289455 16.9891 0.000289456 17.0438 0.00289455C17.7876 0.0426222 18.3972 0.494606 18.6264 1.17844C18.6609 1.28069 18.6876 1.3862 18.7176 1.48975C18.7176 1.64801 18.7176 1.80627 18.7176 1.96388C18.6004 2.44712 18.362 2.8431 17.9367 3.12575C15.4117 4.80082 12.892 6.48241 10.3676 8.15814C9.69225 8.60621 9.00971 8.5971 8.33499 8.14837C5.81717 6.47329 3.30065 4.79757 0.782179 3.1238C0.382949 2.85808 0.121788 2.50248 0.0299586 2.02835C0.0253997 2.00556 0.0097691 1.98537 0 1.96388Z" fill="white"/>
</svg>
