<?xml version="1.0" encoding="utf-8"?>
<!-- Generator: Adobe Illustrator 26.0.1, SVG Export Plug-In . SVG Version: 6.00 Build 0)  -->
<svg version="1.1" xmlns="http://www.w3.org/2000/svg" xmlns:xlink="http://www.w3.org/1999/xlink" x="0px" y="0px"
	 viewBox="0 0 150.69 185.51" style="enable-background:new 0 0 150.69 185.51;" xml:space="preserve">
<style type="text/css">
	.st0{fill:#FFFFFF;}
	.st1{fill-rule:evenodd;clip-rule:evenodd;fill:#FFFFFF;}
	.st2{opacity:0.4;}
	.st3{opacity:0.7;fill-rule:evenodd;clip-rule:evenodd;fill:#FFFFFF;}
</style>
<g id="OBJECTS">
	<g>
		<g>
			<g>
				<g>
					<path class="st0" d="M34.73,21.49C-2.13,50-6.09,121.57,16.06,156.58c10.1-11.48,29.95-35.55,40.51-50.86l60.5-49.77
						c8.64-11.63,24.02-26.56,31.17-33.71C113.95-2.76,67.78-4.08,34.73,21.49z M20.51,114.19l-1.04-1.71l24.3-14.72l1.04,1.71
						L20.51,114.19z M14.09,103.57l-0.54-1.93l32.65-9.12l0.54,1.93L14.09,103.57z M21.35,88.13l24.78-2.17l0.17,1.99l-24.78,2.17
						L21.35,88.13z M52.65,83.28L17.1,76.44l0.38-1.96l35.56,6.83L52.65,83.28z M52.43,75.89L27.75,64.62l0.83-1.82l24.68,11.27
						L52.43,75.89z M57.95,71.41L29.31,46.14l1.32-1.5l28.64,25.26L57.95,71.41z M63.42,67.03L45.46,46.04l1.52-1.3l17.96,20.99
						L63.42,67.03z M70.56,66.36L48.8,30.77l1.71-1.04l21.76,35.59L70.56,66.36z M75.77,59.54L64.47,35l1.82-0.84l11.3,24.55
						L75.77,59.54z M80.97,61.53L70.44,20.34l1.94-0.5l10.53,41.19L80.97,61.53z M87.43,56.47l-3.62-27.53l1.98-0.26l3.62,27.52
						L87.43,56.47z M96.48,61.28h-2V16.3h2V61.28z M105.2,27.1l1.98,0.27l-4.05,29.6l-1.98-0.27L105.2,27.1z M104.53,64.11
						l-1.83-0.81l18.14-40.9l1.83,0.81L104.53,64.11z"/>
				</g>
			</g>
		</g>
		<g>
			<g>
				<g>
					<path class="st1" d="M144.41,133.79c-2.74-1.34-5.32-2.59-7.88-3.89c-0.24-0.12-0.42-0.53-0.46-0.82
						c-0.53-3.37-1.11-6.74-1.49-10.13c-0.14-1.22,0.32-2.5,0.33-3.75c0.04-6.3-4.85-11.48-11.13-11.63
						c-4.29-0.1-8.63-0.24-12.88,0.24c-5.89,0.66-10,6.21-9.62,12.26c0.37,5.81,5.24,10.57,11.11,10.74
						c3.38,0.1,6.76,0.06,10.14,0.04c0.73,0,1.07,0.24,1.35,0.91c7.18,17.03,14.38,34.05,21.61,51.06c0.39,0.91,0.15,1.4-0.54,1.92
						c-2.55,1.94-5.47,2.09-8.46,1.71c-6.1-0.77-11.67-3.18-17.15-5.78c-12.47-5.92-24.16-13.21-35.78-20.6
						c-2.13-1.36-4.25-2.73-6.52-4.19c-0.4,2.5-0.77,4.88-1.15,7.26c-0.77,4.93-1.53,9.86-2.34,14.78c-0.05,0.3-0.55,0.75-0.83,0.75
						c-9.2-0.12-18.35-0.61-27.09-3.85c-2.72-1-5.25-2.36-7.22-4.58c-2.52-2.83-2.88-6.07-1.77-9.58c1.21-3.82,3.41-7.08,6.14-9.9
						c3.57-3.69,7.4-7.13,11.18-10.61c0.66-0.6,0.88-1.11,0.73-1.96c-1.34-7.67-2.83-15.32-3.86-23.03c-0.39-2.93-0.1-6.1,0.54-9.01
						C55.52,83.12,67.05,70.88,86,66.38c24.88-5.91,49.92,11.22,53.98,36.51c0.47,2.95,0.48,5.97,0.92,8.92
						c1.03,6.83,2.2,13.63,3.31,20.45C144.29,132.7,144.33,133.15,144.41,133.79z"/>
				</g>
				<g class="st2">
					<path class="st1" d="M122.03,167.32c-6.9-9.34-15.65-17.11-25.7-22.93c-2.66-1.54-5.39-2.96-8.18-4.25
						c-1.51-0.7-3.03-1.37-4.57-2c-1.45-0.6-2.94-1.11-4.38-1.73c-2.27-0.99-4.44-2.38-5.95-4.37c-1.28-1.68-2.05-3.68-2.28-5.78
						c-0.53-4.78,1.19-9.61,3.23-13.85c1.15-2.4,2.47-4.71,3.89-6.95c1.42-2.24,3-4.37,4.49-6.57c3.44-5.09,5.97-10.69,6.65-16.84
						c0.59-5.38,0.08-10.83-0.54-16.2c-0.89,0.15-1.79,0.33-2.68,0.54c-18.95,4.5-30.48,16.74-34.64,35.75
						c-0.64,2.92-0.93,6.08-0.54,9.01c1.03,7.71,2.53,15.36,3.86,23.03c0.15,0.84-0.07,1.35-0.73,1.96
						c-3.78,3.48-7.6,6.93-11.18,10.61c-2.73,2.82-4.93,6.08-6.14,9.9c-1.11,3.51-0.75,6.75,1.77,9.58c1.97,2.21,4.5,3.57,7.22,4.58
						c8.75,3.24,17.9,3.73,27.09,3.85c0.28,0,0.78-0.45,0.83-0.75c0.81-4.92,1.57-9.85,2.34-14.78c0.37-2.38,0.75-4.75,1.15-7.26
						c2.27,1.46,4.39,2.83,6.52,4.19c11.63,7.39,23.31,14.68,35.78,20.6c3.64,1.73,7.32,3.36,11.17,4.49
						C128.05,176.33,125.25,171.68,122.03,167.32z"/>
				</g>
			</g>
			<g>
				<path class="st1" d="M123.07,74.91c-12.16-7.9-30.76-11.2-46.45-3.45c-15.51,7.66-25.27,21.31-25.27,40.37"/>
				<g>
					<path class="st0" d="M102.15,79c10.61,0.95,21.88,7.36,25.53,16.41"/>
					<g>
						<g>
							<path class="st0" d="M119.42,133"/>
						</g>
						<g>
							<path class="st0" d="M138.37,176.8"/>
						</g>
					</g>
					<path class="st3" d="M38.34,156.51c7.51,9.47,23.52,10.78,34.63,10.78"/>
				</g>
			</g>
		</g>
	</g>
</g>
<g id="DESIGNED_BY_FREEPIK">
</g>
</svg>
