<svg width="15" height="14" viewBox="0 0 15 14" fill="none" xmlns="http://www.w3.org/2000/svg">
<path d="M15 3.22425C15 5.73838 15 8.25207 15 10.7662C14.9408 11.0276 14.906 11.2967 14.8184 11.5495C14.3075 13.0198 12.8899 13.9845 11.2264 13.9887C8.74157 13.9952 6.25673 13.9922 3.77188 13.9896C2.97387 13.9887 2.23823 13.783 1.59203 13.3423C0.524344 12.6142 0.000591384 11.6239 0.000591384 10.3914C0.000132756 8.13742 -0.00124313 5.8834 0.00288452 3.62937C0.00334315 3.39837 0.0148088 3.16308 0.0592957 2.93635C0.311082 1.64357 1.09809 0.741788 2.39875 0.248546C2.73263 0.12192 3.10321 0.0804245 3.45727 0C6.15262 0 8.84751 0 11.5429 0C11.6479 0.0175394 11.7534 0.0337954 11.8579 0.0521904C13.2347 0.294747 14.1988 1.02199 14.729 2.22622C14.8675 2.54022 14.9119 2.89058 15 3.22425ZM13.7411 6.99522C13.7429 6.99522 13.7447 6.99522 13.7466 6.99522C13.7466 5.85687 13.7443 4.71853 13.7479 3.57975C13.7489 3.21484 13.6966 2.86063 13.5218 2.53252C13.0485 1.64314 12.2767 1.173 11.2094 1.16958C8.73423 1.16145 6.25902 1.16658 3.78381 1.16829C3.63797 1.16829 3.4912 1.18113 3.3472 1.20038C2.21118 1.34968 1.27053 2.30793 1.26319 3.38083C1.24622 5.76233 1.25631 8.14384 1.25494 10.5253C1.25494 10.8488 1.32281 11.161 1.47554 11.4502C1.95526 12.3567 2.74181 12.8196 3.82738 12.8209C6.27324 12.8243 8.7191 12.8226 11.165 12.8204C11.3301 12.8204 11.4965 12.8085 11.6603 12.7875C12.7743 12.645 13.7218 11.6761 13.7369 10.6284C13.7544 9.41823 13.7411 8.20673 13.7411 6.99522Z" fill="white"/>
<path d="M11.2492 7.01232C11.2295 8.94935 9.52845 10.5172 7.4738 10.492C5.39943 10.4667 3.73094 8.89203 3.75066 6.97724C3.77038 5.03935 5.47006 3.47321 7.52562 3.4976C9.60045 3.52283 11.2689 5.09753 11.2492 7.01232ZM7.50223 4.66632C6.12268 4.66418 5.00913 5.69943 5.00363 6.98965C4.99767 8.27473 6.10663 9.31554 7.49077 9.3241C8.87261 9.33222 9.99808 8.28585 9.99671 6.99392C9.99533 5.70542 8.88362 4.66846 7.50223 4.66632Z" fill="white"/>
<path d="M11.5698 4.07532C11.0479 4.07875 10.6296 3.6916 10.6296 3.2052C10.6301 2.7265 11.0406 2.33935 11.5556 2.33165C12.0642 2.32395 12.5008 2.72778 12.5004 3.20563C12.4999 3.68176 12.0826 4.0719 11.5698 4.07532Z" fill="white"/>
</svg>
