<?xml version="1.0" encoding="utf-8"?>
<!-- Generator: Adobe Illustrator 26.0.1, SVG Export Plug-In . SVG Version: 6.00 Build 0)  -->
<svg version="1.1" xmlns="http://www.w3.org/2000/svg" xmlns:xlink="http://www.w3.org/1999/xlink" x="0px" y="0px"
	 viewBox="0 0 65.64 105.99" style="enable-background:new 0 0 65.64 105.99;" xml:space="preserve">
<style type="text/css">
	.st0{fill:#FFFFFF;}
</style>
<g id="OBJECTS">
	<g>
		<path class="st0" d="M2.32,104.75c0-6.69-1.19-11,4.83-14.45c1.53-0.88,2.66-3.8,2.68-5.79c0.2-19.33,0.18-38.66,0.01-57.99
			c-0.02-1.89-0.94-4.56-2.35-5.5C2.33,17.6,1.11,12.99,1.84,7.31c0.25-1.92,0.04-3.89,0.04-6.07c3.18,0,5.79,0,8.78,0
			c0.22,1.87,0.44,3.78,0.72,6.16c2.31,0,4.68,0,7.48,0c0.22-1.77,0.46-3.68,0.75-6c2.82,0,5.7,0,8.91,0
			c0.18,1.9,0.36,3.83,0.57,6.11c2.46,0,4.85,0,7.56,0c0.22-2.07,0.42-4,0.66-6.22c2.78,0,5.52,0,8.5,0
			c0.23,2.05,0.44,3.97,0.7,6.22c2.59,0,4.98,0,7.53,0c0.29-2.16,0.55-4.09,0.84-6.26c2.9,0,5.65,0,8.99,0
			c0,4.42,0.37,8.75-0.17,12.96c-0.23,1.78-2.09,3.72-3.72,4.87c-3.41,2.39-4.22,5.38-4.18,9.39c0.19,18.66,0.01,37.33,0.2,55.99
			c0.02,2.02,0.98,4.96,2.48,5.86c5.77,3.47,6.25,8.36,4.92,14.44C43.21,104.75,22.97,104.75,2.32,104.75z"/>
	</g>
</g>
<g id="DESIGNED_BY_FREEPIK">
</g>
</svg>
